<svg width="212" height="397" viewBox="0 0 212 397" fill="none" xmlns="http://www.w3.org/2000/svg">
<path opacity="0.15" fill-rule="evenodd" clip-rule="evenodd" d="M130.685 368.47C175.087 368.47 211.082 374.74 211.082 382.474C211.082 390.208 175.087 396.479 130.685 396.479C86.283 396.479 50.288 390.209 50.288 382.474C50.287 374.74 86.282 368.47 130.685 368.47Z" fill="black"/>
<path d="M143.647 66.543H117.431V94.324H143.647V66.543Z" fill="#F0B184"/>
<path fill-rule="evenodd" clip-rule="evenodd" d="M127.004 89.973H134.074L136.249 94.905L133.354 103.248H127.724L124.829 94.905L127.004 89.973Z" fill="#235278"/>
<path fill-rule="evenodd" clip-rule="evenodd" d="M117.224 82.307L110.3 92.542L121.093 106.022L130.539 89.973L117.224 82.307Z" fill="#94CDFC"/>
<path fill-rule="evenodd" clip-rule="evenodd" d="M143.854 82.307L150.778 92.542L139.985 106.022L130.539 89.973L143.854 82.307Z" fill="#94CDFC"/>
<path fill-rule="evenodd" clip-rule="evenodd" d="M130.539 176.64L136.249 166.691L133.354 103.248H127.724L124.829 166.691L130.539 176.64Z" fill="#235278"/>
<path fill-rule="evenodd" clip-rule="evenodd" d="M102.694 361.387C106.045 366.919 105.688 376.078 105.375 380.767C103.469 382.175 95.208 382.04 95.208 382.04L94.809 379.454C94.809 379.454 86.079 385.683 76.702 386.18C67.325 386.677 57.916 385.423 57.98 381.804C58.218 368.443 82.626 373.379 85.288 362.888L102.694 361.387Z" fill="#182530"/>
<path fill-rule="evenodd" clip-rule="evenodd" d="M158.233 361.387C154.882 366.919 155.239 376.078 155.552 380.767C157.458 382.175 165.718 382.04 165.718 382.04L166.117 379.454C166.117 379.454 174.847 385.683 184.224 386.18C193.601 386.677 203.01 385.423 202.945 381.804C202.707 368.443 178.299 373.379 175.637 362.888L158.233 361.387Z" fill="#182530"/>
<path fill-rule="evenodd" clip-rule="evenodd" d="M179.23 367.018L160.023 183.707H99.802L80.975 367.018C89.733 369.678 97.835 369.934 105.071 367.018L129.912 219.68L154.753 367.018C163.581 369.469 171.924 370.145 179.23 367.018Z" fill="#183E5E"/>
<path d="M160.023 176.64H99.802V183.707H160.023V176.64Z" fill="#182530"/>
<path fill-rule="evenodd" clip-rule="evenodd" d="M121.564 181.435C120.868 181.435 120.303 180.87 120.303 180.174C120.303 179.477 120.868 178.912 121.564 178.912H128.344C129.04 178.912 129.605 179.477 129.605 180.174C129.605 180.87 129.04 181.435 128.344 181.435H121.564Z" fill="white"/>
<path d="M110.239 176.64H107.678V186.911H110.239V176.64Z" fill="#183E5E"/>
<path d="M152.322 176.64H149.761V186.911H152.322V176.64Z" fill="#183E5E"/>
<path d="M143.24 68.412H117.469V95.721H143.24V68.412Z" fill="#F0B184"/>
<path fill-rule="evenodd" clip-rule="evenodd" d="M72.035 135.59L103.635 110.585C115.954 100.836 102.435 86.122 91.34 94.902L59.74 119.907C45.281 131.35 57.63 146.989 72.035 135.59Z" fill="#94CDFC"/>
<path fill-rule="evenodd" clip-rule="evenodd" d="M159.819 91.445L97.679 92.305C97.699 101.407 96.883 113.798 91.109 120.497L99.879 176.64H159.819L166.272 119.317C163.453 110.21 164.195 104.727 171.356 96.86C168.704 93.557 164.251 91.383 159.819 91.445Z" fill="#81BBEB"/>
<path fill-rule="evenodd" clip-rule="evenodd" d="M133.83 91.4451H126.88L124.742 96.2931L127.588 104.494H133.122L135.968 96.2931L133.83 91.4451Z" fill="#235278"/>
<path fill-rule="evenodd" clip-rule="evenodd" d="M143.443 83.9089L150.25 93.9699L139.64 107.221L130.355 91.4449L143.443 83.9089Z" fill="#94CDFC"/>
<path fill-rule="evenodd" clip-rule="evenodd" d="M117.266 83.9089L110.459 93.9699L121.069 107.221L130.355 91.4449L117.266 83.9089Z" fill="#94CDFC"/>
<path fill-rule="evenodd" clip-rule="evenodd" d="M130.355 176.64L124.742 166.86L127.588 104.494H133.122L135.968 166.86L130.355 176.64Z" fill="#235278"/>
<path fill-rule="evenodd" clip-rule="evenodd" d="M30.668 141.641L34.244 137.021C36.336 134.318 40.32 137.473 38.091 139.998L34.514 144.618C32.428 147.314 28.785 144.404 30.668 141.641Z" fill="#FFC194"/>
<path fill-rule="evenodd" clip-rule="evenodd" d="M153.965 147.545L170.723 112.09C180.455 91.499 158.624 87.01 152.732 100.522L135.546 139.94C128.176 156.843 146.115 164.152 153.965 147.545Z" fill="#94CDFC"/>
<path fill-rule="evenodd" clip-rule="evenodd" d="M114.188 8.36304C125.089 8.36304 135.989 8.36304 146.89 8.36304C153.453 8.36304 158.822 13.732 158.822 20.295C158.822 34.289 158.822 48.283 158.822 62.277C158.822 81.44 102.256 81.4 102.256 62.277C102.256 48.283 102.256 34.289 102.256 20.295C102.256 13.732 107.625 8.36304 114.188 8.36304Z" fill="#FFC194"/>
<path fill-rule="evenodd" clip-rule="evenodd" d="M120.358 45.0119C121.547 45.0119 122.518 42.4479 122.518 39.3039C122.518 36.1599 121.548 33.5959 120.358 33.5959C119.169 33.5959 118.199 36.1599 118.199 39.3039C118.199 42.4479 119.169 45.0119 120.358 45.0119Z" fill="#333333"/>
<path fill-rule="evenodd" clip-rule="evenodd" d="M140.72 45.0119C141.909 45.0119 142.88 42.4479 142.88 39.3039C142.88 36.1599 141.91 33.5959 140.72 33.5959C139.531 33.5959 138.56 36.1599 138.56 39.3039C138.56 42.4479 139.531 45.0119 140.72 45.0119Z" fill="#333333"/>
<path fill-rule="evenodd" clip-rule="evenodd" d="M129.114 54.42C133.446 56.063 138.501 54.433 137.088 48.391C136.427 53.33 132.764 54.357 129.114 54.42Z" fill="#CF8E5F"/>
<path fill-rule="evenodd" clip-rule="evenodd" d="M115.387 28.436C113.266 30.09 111.264 27.324 113.386 25.67C116.516 23.224 121.617 22.475 125.472 23.007C128.135 23.367 127.589 27.417 124.924 27.057C122.208 26.683 117.649 26.667 115.387 28.436Z" fill="#44312D"/>
<path fill-rule="evenodd" clip-rule="evenodd" d="M147.85 25.671C149.971 27.324 148.071 29.667 145.95 28.014C143.686 26.244 139.028 26.683 136.312 27.058C133.648 27.418 133.102 23.368 135.764 23.008C139.622 22.476 144.718 23.222 147.85 25.671Z" fill="#44312D"/>
<path fill-rule="evenodd" clip-rule="evenodd" d="M115.127 54.925C121.357 59.09 139.297 59.254 146.238 54.15C143.635 73.295 117.466 72.97 115.127 54.925Z" fill="#B87647"/>
<mask id="mask0_347_1052" style="mask-type:luminance" maskUnits="userSpaceOnUse" x="115" y="54" width="32" height="15">
<path d="M115.127 54.925C121.357 59.09 139.297 59.254 146.238 54.15C143.635 73.295 117.466 72.97 115.127 54.925Z" fill="white"/>
</mask>
<g mask="url(#mask0_347_1052)">
<path fill-rule="evenodd" clip-rule="evenodd" d="M145.025 55.564C139.324 63.919 122.424 63.515 116.316 56.318L116.301 56.222C122.05 59.881 138.583 60.031 145.025 55.564Z" fill="white"/>
</g>
<path fill-rule="evenodd" clip-rule="evenodd" d="M99.335 32.4919C101.958 32.0309 104.722 35.29 105.509 39.771C106.296 44.251 104.808 48.257 102.185 48.718C99.562 49.179 96.798 45.92 96.011 41.439C95.224 36.958 96.712 32.9519 99.335 32.4919Z" fill="#FFC194"/>
<path fill-rule="evenodd" clip-rule="evenodd" d="M161.743 32.4919C159.12 32.0309 156.356 35.29 155.569 39.771C154.782 44.251 156.27 48.257 158.893 48.718C161.516 49.179 164.28 45.92 165.067 41.439C165.854 36.958 164.366 32.9519 161.743 32.4919Z" fill="#FFC194"/>
<path fill-rule="evenodd" clip-rule="evenodd" d="M159.182 40.997C160.911 27.39 164.62 13.921 160.676 12.056C157.08 10.355 154.832 10.541 152.871 7.104C143.915 -8.597 112.943 6.421 102.376 9.632C97.173 11.213 102.755 31.089 102.922 42.301C102.97 45.538 105.303 44.923 105.092 41.93C104.51 33.634 105.65 21.578 106.24 19.048C107.634 13.076 118.838 14.794 130.619 14.794C143.338 14.794 153.686 10.838 155.677 18.347C156.213 20.368 158.103 31.374 157.033 40.88C156.714 43.712 158.779 44.165 159.182 40.997Z" fill="#44312D"/>
<path fill-rule="evenodd" clip-rule="evenodd" d="M16.048 83.577H83.606C84.987 83.577 86.117 84.707 86.117 86.088V128.768C86.117 130.149 84.987 131.279 83.606 131.279H16.048C14.667 131.279 13.537 130.149 13.537 128.768V86.088C13.537 84.706 14.667 83.577 16.048 83.577Z" fill="#182530"/>
<path d="M82.35 88.557H17.303V123.477H82.35V88.557Z" fill="white"/>
<path fill-rule="evenodd" clip-rule="evenodd" d="M49.827 87.069C50.331 87.069 50.74 86.6601 50.74 86.1561C50.74 85.6521 50.331 85.243 49.827 85.243C49.323 85.243 48.914 85.6521 48.914 86.1561C48.914 86.6601 49.323 87.069 49.827 87.069Z" fill="#183E5E"/>
<path d="M51.371 125.651H48.284V128.738H51.371V125.651Z" fill="#183E5E"/>
<path fill-rule="evenodd" clip-rule="evenodd" d="M13.537 131.278H86.117L98.723 139.541H0.932007L13.537 131.278Z" fill="#183E5E"/>
<path fill-rule="evenodd" clip-rule="evenodd" d="M0.932007 139.541H98.723V142.356C98.723 143.354 97.906 144.17 96.908 144.17H2.74601C1.74801 144.17 0.932007 143.354 0.932007 142.356V139.541Z" fill="#182530"/>
<path d="M59.704 141.94H39.951V143.2H59.704V141.94Z" fill="#183E5E"/>
<path d="M98.723 139.541H0.932007V140.949H98.723V139.541Z" fill="#182530"/>
<path fill-rule="evenodd" clip-rule="evenodd" d="M35.985 145.386V139.543C35.985 136.125 41.066 136.182 40.849 139.543V145.386C40.849 148.795 36.187 148.723 35.985 145.386Z" fill="#FFC194"/>
<path fill-rule="evenodd" clip-rule="evenodd" d="M45.727 145.386V138.767C45.727 135.349 40.646 135.406 40.863 138.767V145.386C40.863 148.795 45.525 148.723 45.727 145.386Z" fill="#FFC194"/>
<path fill-rule="evenodd" clip-rule="evenodd" d="M45.727 145.386V139.654C45.727 136.236 50.808 136.293 50.591 139.654V145.386C50.591 148.795 45.929 148.723 45.727 145.386Z" fill="#FFC194"/>
<path fill-rule="evenodd" clip-rule="evenodd" d="M55.469 145.386V141.199C55.469 137.781 50.388 137.838 50.605 141.199V145.386C50.605 148.795 55.267 148.723 55.469 145.386Z" fill="#FFC194"/>
<path fill-rule="evenodd" clip-rule="evenodd" d="M100.122 130.827L120.001 141.84L122.863 136.641L118.237 126.994L106.585 120.543L100.122 130.827Z" fill="#FFC194"/>
<path fill-rule="evenodd" clip-rule="evenodd" d="M92.94 104.6L101.412 111.698C102.502 112.612 105.732 117.16 104.909 118.32C104.087 119.48 100.266 117.424 99.198 116.483L93.511 111.11C90.249 108.029 91.912 105.754 92.94 104.6Z" fill="#F0B184"/>
<path fill-rule="evenodd" clip-rule="evenodd" d="M74.854 104.958L86.128 111.151C83.98 111.381 83.385 114.577 85.282 115.911C83.048 115.845 82.241 118.806 83.725 120.351C81.656 120.629 81.188 123.846 83.269 124.982L92.797 130.189C95.472 131.651 99.705 132.084 101.693 131.688C107.588 130.516 108.409 122.924 106.865 120.097C105.661 117.893 105.047 116.188 103.626 115.386L77.229 100.778C73.899 98.898 72.075 103.488 74.854 104.958Z" fill="#FFC194"/>
<path fill-rule="evenodd" clip-rule="evenodd" d="M86.984 122.315C86.984 122.315 85.074 121.32 83.381 120.428C83.49 120.393 83.605 120.367 83.725 120.351C83.595 120.215 83.482 120.068 83.387 119.914C85.019 120.986 86.984 122.315 86.984 122.315ZM86.066 111.159C85.875 111.185 85.698 111.234 85.533 111.304C87.433 112.297 90.72 113.92 90.72 113.92C90.72 113.92 87.518 111.933 86.127 111.152C86.149 111.163 86.123 111.164 86.066 111.159ZM84.613 115.23C84.786 115.486 85.008 115.718 85.282 115.911C85.133 115.907 84.991 115.916 84.856 115.938C86.721 116.941 89.036 118.173 89.036 118.173C89.036 118.173 86.325 116.329 84.613 115.23Z" fill="#F0B184"/>
<path fill-rule="evenodd" clip-rule="evenodd" d="M133.758 154.413L102.93 137.375L112.464 119.995L143.04 136.778C159.204 145.651 149.836 163.298 133.758 154.413Z" fill="#94CDFC"/>
<path d="M108.605 140.511L118.139 123.132" stroke="#81BBEB" stroke-width="1.1999" stroke-miterlimit="22.9256"/>
<path d="M63.627 117.432H36.028V120.246H63.627V117.432Z" fill="#183E5E"/>
<path d="M63.627 101.313H57.451V117.432H63.627V101.313Z" fill="#183E5E"/>
<path d="M56.486 107.391H50.31V117.432H56.486V107.391Z" fill="#9BDBD1"/>
<path d="M49.345 110.791H43.169V117.431H49.345V110.791Z" fill="#FFBDC1"/>
<path d="M42.204 107.677H36.028V117.431H42.204V107.677Z" fill="#81BBEB"/>
<path fill-rule="evenodd" clip-rule="evenodd" d="M125.304 175.379H134.697C135.371 175.379 135.987 175.656 136.433 176.101L136.438 176.106C136.884 176.552 137.161 177.167 137.161 177.842V182.507C137.161 183.182 136.884 183.797 136.438 184.242V184.247C135.992 184.692 135.375 184.969 134.698 184.969H125.305C124.626 184.969 124.01 184.692 123.565 184.247C123.119 183.801 122.842 183.185 122.842 182.507V177.842C122.842 177.164 123.119 176.547 123.565 176.102H123.57C124.014 175.656 124.629 175.379 125.304 175.379ZM134.638 177.902H125.364V182.447H134.638V177.902Z" fill="white"/>
<path fill-rule="evenodd" clip-rule="evenodd" d="M36.792 99.7081C40.068 100.997 44.337 101.259 48.449 100.339C52.124 99.5171 55.659 97.7491 58.223 94.9241L59.588 96.1661C56.754 99.2881 52.871 101.237 48.846 102.137C44.38 103.136 39.719 102.842 36.12 101.426L36.792 99.7081Z" fill="#183E5E"/>
<path fill-rule="evenodd" clip-rule="evenodd" d="M59.853 99.9841L62.456 92.7581L54.875 93.8961L59.853 99.9841Z" fill="#183E5E"/>
</svg>
